<svg width="20" height="20" viewBox="0 0 20 20" fill="none" xmlns="http://www.w3.org/2000/svg">
<path d="M8.35859 7.47471C8.11451 7.23063 7.71878 7.23063 7.4747 7.47471C7.23063 7.71879 7.23063 8.11451 7.4747 8.35859L9.1161 9.99999L7.47472 11.6414C7.23064 11.8855 7.23064 12.2812 7.47472 12.5253C7.7188 12.7693 8.11453 12.7693 8.35861 12.5253L9.99999 10.8839L11.6414 12.5252C11.8854 12.7693 12.2812 12.7693 12.5252 12.5252C12.7693 12.2812 12.7693 11.8854 12.5252 11.6414L10.8839 9.99999L12.5253 8.35861C12.7693 8.11453 12.7693 7.7188 12.5253 7.47473C12.2812 7.23065 11.8854 7.23065 11.6414 7.47473L9.99999 9.11611L8.35859 7.47471Z" fill="#B8B6BF"/>
<path fill-rule="evenodd" clip-rule="evenodd" d="M10 1.04166C5.05245 1.04166 1.04167 5.05245 1.04167 10C1.04167 14.9475 5.05245 18.9583 10 18.9583C14.9476 18.9583 18.9583 14.9475 18.9583 10C18.9583 5.05245 14.9476 1.04166 10 1.04166ZM2.29167 10C2.29167 5.7428 5.74281 2.29166 10 2.29166C14.2572 2.29166 17.7083 5.7428 17.7083 10C17.7083 14.2572 14.2572 17.7083 10 17.7083C5.74281 17.7083 2.29167 14.2572 2.29167 10Z" fill="#B8B6BF"/>
</svg>
